# xmcd
#
# Track frame offsets:
#	150
#	10465
#	20700
#	33487
#	45472
#	67587
#	80187
#	92172
#	103187
#	121262
#
# Disc length: 1793
#
# Revision: 1
# Processed by: cddbd v1.5.1PL0 Copyright (c) Steve Scherf et al.
# Submitted via: FreeRIP 2.92 
# Normalized: r0:TDELIM( - )
#
DISCID=7d06ff0a
DTITLE=Country Gold
DYEAR=1900
DGENRE=
TTITLE0=Del Reeves - Philidelphia Fillies
TTITLE1=Leroy Van Dyke - Walk on By
TTITLE2=Kitty Wells - Mommy fo a Day
TTITLE3=roy Drusky and Kitty Wells - Slowly
TTITLE4=David Frizzell - Long Black Veil
TTITLE5=Margo Smith - Wheel of Fortune
TTITLE6=Bobby Helms - Fraulein
TTITLE7=Jimmy C. Newman - A Fallen Star
TTITLE8=David Frizzell - Saginaw, Michigan
TTITLE9=Kitty Wells - Amigo's Guitar
EXTD=
EXTT0=
EXTT1=
EXTT2=
EXTT3=
EXTT4=
EXTT5=
EXTT6=
EXTT7=
EXTT8=
EXTT9=
PLAYORDER=
